<?xml version="1.0" encoding="UTF-8"?> <svg xmlns="http://www.w3.org/2000/svg" xmlns:xlink="http://www.w3.org/1999/xlink" viewBox="0 0 149.81209 45.568"><defs><style> .a, .b { fill-rule: evenodd; } .a { fill: url(#a); } .b { fill: #e90129; } </style><linearGradient id="a" data-name="Degradado sin nombre 2" x1="264.34939" y1="-104.15323" x2="105.52109" y2="-104.15323" gradientTransform="matrix(1, 0, 0, -1, -110, -61)" gradientUnits="userSpaceOnUse"><stop offset="0" stop-color="#e90129"></stop><stop offset="0.49" stop-color="#ff7312"></stop><stop offset="1" stop-color="#ffb41c"></stop></linearGradient></defs><g><path class="a" d="M94.18913,43.88091v5.68741h10.20376a2.06218,2.06218,0,0,0,1.539-.45162,2.43692,2.43692,0,0,0,.41823-1.63936V46.00527a2.46921,2.46921,0,0,0-.42658-1.66439,2.041,2.041,0,0,0-1.53067-.46Zm38.181-7.15947V49.53493H147.0068V36.72144Zm-38.181-.03339v4.88433h10.20376a2.15082,2.15082,0,0,0,1.41364-.35127A1.58,1.58,0,0,0,106.19955,40V38.22689a1.56425,1.56425,0,0,0-.37633-1.20443,2.22433,2.22433,0,0,0-1.43033-.33441Zm-63.41829-.35128-4.75061,9.04959h9.51791Zm102.80356-2.0242h12.228a4.56429,4.56429,0,0,1,3.2535.8782,4.76109,4.76109,0,0,1,.86081,3.30376v9.31739q0,2.44235-.86081,3.31211a4.5951,4.5951,0,0,1-3.2535.86985h-12.228q-2.4254,0-3.28689-.88654a4.76179,4.76179,0,0,1-.8615-3.29542V38.49453a4.76094,4.76094,0,0,1,.8615-3.29524Q131.14884,34.31265,133.5744,34.31257Zm-16.08717,0h2.96083V51.99388h-2.96083Zm-26.25893,0h14.252a4.15909,4.15909,0,0,1,2.86882.81142,3.41752,3.41752,0,0,1,.8782,2.6179V39.7993a2.86679,2.86679,0,0,1-.7109,2.12436,3.74432,3.74432,0,0,1-2.23324.88672,3.15541,3.15541,0,0,1,3.04448,3.46253v2.25827a2.97468,2.97468,0,0,1-1.21278,2.60954,6.447,6.447,0,0,1-3.68843.85316H91.2283Zm-30.95424,0h2.40869L71.2809,45.82129l8.01246-11.50872h2.70987V51.99388H79.29336V40.06693q0-.23424.0586-1.17922.05842-.945.07529-1.41346-.33465.68579-.59386,1.15418a8.40326,8.40326,0,0,1-.46.75264l-6.75811,9.836h-.75264L63.83692,39.6487a1.16951,1.16951,0,0,1-.08347-.117,7.60468,7.60468,0,0,1-1.10409-2.05742q.06678.51857.10034,1.08723.03339.56865.03339,1.50545V51.99388h-2.509Zm-12.173,0h2.96083V51.99388H48.101Zm-18.83566,0h3.16151L42.246,51.99388H39.00084l-2.25827-4.34925H24.78224l-2.2581,4.34925H19.6134Zm-29.1608,0H3.0654V49.53493H16.44755v2.45895H.10458Z" transform="translate(-0.10458 -6.42588)"></path><path class="b" d="M125.71409,23.60874c.12722,8.87783-13.62123,8.87793-13.49288-.00061C112.09392,14.7311,125.84242,14.731,125.71409,23.60874Z" transform="translate(-0.10458 -6.42588)"></path><path class="b" d="M109.699,23.60874c.12722,8.87783-13.62123,8.87793-13.49288-.00061C96.07879,14.7311,109.82728,14.731,109.699,23.60874Z" transform="translate(-0.10458 -6.42588)"></path><path class="b" d="M141.72923,23.60874c.12722,8.87783-13.62124,8.87793-13.49289-.00061C128.10906,14.7311,141.85756,14.731,141.72923,23.60874Z" transform="translate(-0.10458 -6.42588)"></path><path class="b" d="M123.19339,10.59644c.07969,5.56077-8.53188,5.56084-8.45148-.00038C114.66218,5.03579,123.27377,5.03572,123.19339,10.59644Z" transform="translate(-0.10458 -6.42588)"></path></g></svg> 