<svg xmlns="http://www.w3.org/2000/svg" xmlns:xlink="http://www.w3.org/1999/xlink" width="800px" height="800px" viewBox="0 0 32 32">
    <rect width="100%" height="100%" fill="#0076A8" />
    <path d="M2,17.55l7.97-3.22a20.7,20.7,0,0,1,2.72-2.95c.66-.35,1.9-.16,4.17-2.98,2.2-2.75,2.9-5.1,3.93-5.1,1.63,0,2.83,3.52,4.65,8.85A115.629,115.629,0,0,0,30,24.12c-1.9-1.77-3.52-3.68-5.37-3.63-1.72.04-3.63,2.08-5.72,4.7-1.66,2.1-3.86,3.54-4.72,3.51,0,0-2.22-6.28-4.08-7.3a2.641,2.641,0,0,0-2.39.2L2,17.54Z" style="fill:#ffffff"/>
</svg>